<svg width="32" height="32" viewBox="0 0 32 32" fill="none" xmlns="http://www.w3.org/2000/svg">
<path d="M17.6 10.8571H1.6C0.72 10.8571 0 11.6286 0 12.5714C0 13.5143 0.72 14.2857 1.6 14.2857H17.6C18.48 14.2857 19.2 13.5143 19.2 12.5714C19.2 11.6286 18.48 10.8571 17.6 10.8571ZM17.6 4H1.6C0.72 4 0 4.77143 0 5.71429C0 6.65714 0.72 7.42857 1.6 7.42857H17.6C18.48 7.42857 19.2 6.65714 19.2 5.71429C19.2 4.77143 18.48 4 17.6 4ZM25.6 17.7143V12.5714C25.6 11.6286 24.88 10.8571 24 10.8571C23.12 10.8571 22.4 11.6286 22.4 12.5714V17.7143H17.6C16.72 17.7143 16 18.4857 16 19.4286C16 20.3714 16.72 21.1429 17.6 21.1429H22.4V26.2857C22.4 27.2286 23.12 28 24 28C24.88 28 25.6 27.2286 25.6 26.2857V21.1429H30.4C31.28 21.1429 32 20.3714 32 19.4286C32 18.4857 31.28 17.7143 30.4 17.7143H25.6ZM1.6 21.1429H11.2C12.08 21.1429 12.8 20.3714 12.8 19.4286C12.8 18.4857 12.08 17.7143 11.2 17.7143H1.6C0.72 17.7143 0 18.4857 0 19.4286C0 20.3714 0.72 21.1429 1.6 21.1429Z" fill="#FF7506"/>
</svg>
