<svg width="32" height="32" viewBox="0 0 32 32" fill="none" xmlns="http://www.w3.org/2000/svg">
<g id="u:calendar-alt">
<g id="Vector">
<mask id="path-1-inside-1_632_4011" fill="white">
<path d="M16.0001 25.334C16.2638 25.334 16.5216 25.2558 16.7408 25.1093C16.9601 24.9628 17.131 24.7545 17.2319 24.5109C17.3328 24.2673 17.3592 23.9992 17.3078 23.7405C17.2563 23.4819 17.1294 23.2443 16.9429 23.0578C16.7564 22.8714 16.5188 22.7444 16.2602 22.6929C16.0016 22.6415 15.7335 22.6679 15.4898 22.7688C15.2462 22.8697 15.038 23.0406 14.8915 23.2599C14.7449 23.4792 14.6667 23.7369 14.6667 24.0006C14.6667 24.3543 14.8072 24.6934 15.0573 24.9435C15.3073 25.1935 15.6465 25.334 16.0001 25.334ZM22.6667 25.334C22.9305 25.334 23.1882 25.2558 23.4075 25.1093C23.6268 24.9628 23.7977 24.7545 23.8986 24.5109C23.9995 24.2673 24.0259 23.9992 23.9745 23.7405C23.923 23.4819 23.796 23.2443 23.6096 23.0578C23.4231 22.8714 23.1855 22.7444 22.9269 22.6929C22.6682 22.6415 22.4001 22.6679 22.1565 22.7688C21.9129 22.8697 21.7046 23.0406 21.5581 23.2599C21.4116 23.4792 21.3334 23.7369 21.3334 24.0006C21.3334 24.3543 21.4739 24.6934 21.7239 24.9435C21.974 25.1935 22.3131 25.334 22.6667 25.334ZM22.6667 20.0006C22.9305 20.0006 23.1882 19.9225 23.4075 19.7759C23.6268 19.6294 23.7977 19.4212 23.8986 19.1776C23.9995 18.9339 24.0259 18.6658 23.9745 18.4072C23.923 18.1486 23.796 17.911 23.6096 17.7245C23.4231 17.538 23.1855 17.411 22.9269 17.3596C22.6682 17.3082 22.4001 17.3346 22.1565 17.4355C21.9129 17.5364 21.7046 17.7073 21.5581 17.9266C21.4116 18.1458 21.3334 18.4036 21.3334 18.6673C21.3334 19.0209 21.4739 19.3601 21.7239 19.6101C21.974 19.8602 22.3131 20.0006 22.6667 20.0006ZM16.0001 20.0006C16.2638 20.0006 16.5216 19.9225 16.7408 19.7759C16.9601 19.6294 17.131 19.4212 17.2319 19.1776C17.3328 18.9339 17.3592 18.6658 17.3078 18.4072C17.2563 18.1486 17.1294 17.911 16.9429 17.7245C16.7564 17.538 16.5188 17.411 16.2602 17.3596C16.0016 17.3082 15.7335 17.3346 15.4898 17.4355C15.2462 17.5364 15.038 17.7073 14.8915 17.9266C14.7449 18.1458 14.6667 18.4036 14.6667 18.6673C14.6667 19.0209 14.8072 19.3601 15.0573 19.6101C15.3073 19.8602 15.6465 20.0006 16.0001 20.0006ZM25.3334 4.00065H24.0001V2.66732C24.0001 2.3137 23.8596 1.97456 23.6096 1.72451C23.3595 1.47446 23.0204 1.33398 22.6667 1.33398C22.3131 1.33398 21.974 1.47446 21.7239 1.72451C21.4739 1.97456 21.3334 2.3137 21.3334 2.66732V4.00065H10.6667V2.66732C10.6667 2.3137 10.5263 1.97456 10.2762 1.72451C10.0262 1.47446 9.68704 1.33398 9.33341 1.33398C8.97979 1.33398 8.64065 1.47446 8.39061 1.72451C8.14056 1.97456 8.00008 2.3137 8.00008 2.66732V4.00065H6.66675C5.60588 4.00065 4.58847 4.42208 3.83832 5.17222C3.08818 5.92237 2.66675 6.93978 2.66675 8.00065V26.6673C2.66675 27.7282 3.08818 28.7456 3.83832 29.4957C4.58847 30.2459 5.60588 30.6673 6.66675 30.6673H25.3334C26.3943 30.6673 27.4117 30.2459 28.1618 29.4957C28.912 28.7456 29.3334 27.7282 29.3334 26.6673V8.00065C29.3334 6.93978 28.912 5.92237 28.1618 5.17222C27.4117 4.42208 26.3943 4.00065 25.3334 4.00065ZM26.6667 26.6673C26.6667 27.0209 26.5263 27.3601 26.2762 27.6101C26.0262 27.8602 25.687 28.0006 25.3334 28.0006H6.66675C6.31313 28.0006 5.97399 27.8602 5.72394 27.6101C5.47389 27.3601 5.33341 27.0209 5.33341 26.6673V14.6673H26.6667V26.6673ZM26.6667 12.0007H5.33341V8.00065C5.33341 7.64703 5.47389 7.30789 5.72394 7.05784C5.97399 6.80779 6.31313 6.66732 6.66675 6.66732H8.00008V8.00065C8.00008 8.35427 8.14056 8.69341 8.39061 8.94346C8.64065 9.19351 8.97979 9.33398 9.33341 9.33398C9.68704 9.33398 10.0262 9.19351 10.2762 8.94346C10.5263 8.69341 10.6667 8.35427 10.6667 8.00065V6.66732H21.3334V8.00065C21.3334 8.35427 21.4739 8.69341 21.7239 8.94346C21.974 9.19351 22.3131 9.33398 22.6667 9.33398C23.0204 9.33398 23.3595 9.19351 23.6096 8.94346C23.8596 8.69341 24.0001 8.35427 24.0001 8.00065V6.66732H25.3334C25.687 6.66732 26.0262 6.80779 26.2762 7.05784C26.5263 7.30789 26.6667 7.64703 26.6667 8.00065V12.0007ZM9.33341 20.0006C9.59712 20.0006 9.85491 19.9225 10.0742 19.7759C10.2934 19.6294 10.4643 19.4212 10.5653 19.1776C10.6662 18.9339 10.6926 18.6658 10.6411 18.4072C10.5897 18.1486 10.4627 17.911 10.2762 17.7245C10.0898 17.538 9.85218 17.411 9.59354 17.3596C9.33489 17.3082 9.06681 17.3346 8.82317 17.4355C8.57954 17.5364 8.3713 17.7073 8.22479 17.9266C8.07828 18.1458 8.00008 18.4036 8.00008 18.6673C8.00008 19.0209 8.14056 19.3601 8.39061 19.6101C8.64065 19.8602 8.97979 20.0006 9.33341 20.0006ZM9.33341 25.334C9.59712 25.334 9.85491 25.2558 10.0742 25.1093C10.2934 24.9628 10.4643 24.7545 10.5653 24.5109C10.6662 24.2673 10.6926 23.9992 10.6411 23.7405C10.5897 23.4819 10.4627 23.2443 10.2762 23.0578C10.0898 22.8714 9.85218 22.7444 9.59354 22.6929C9.33489 22.6415 9.06681 22.6679 8.82317 22.7688C8.57954 22.8697 8.3713 23.0406 8.22479 23.2599C8.07828 23.4792 8.00008 23.7369 8.00008 24.0006C8.00008 24.3543 8.14056 24.6934 8.39061 24.9435C8.64065 25.1935 8.97979 25.334 9.33341 25.334Z"/>
</mask>
<path d="M16.0001 25.334C16.2638 25.334 16.5216 25.2558 16.7408 25.1093C16.9601 24.9628 17.131 24.7545 17.2319 24.5109C17.3328 24.2673 17.3592 23.9992 17.3078 23.7405C17.2563 23.4819 17.1294 23.2443 16.9429 23.0578C16.7564 22.8714 16.5188 22.7444 16.2602 22.6929C16.0016 22.6415 15.7335 22.6679 15.4898 22.7688C15.2462 22.8697 15.038 23.0406 14.8915 23.2599C14.7449 23.4792 14.6667 23.7369 14.6667 24.0006C14.6667 24.3543 14.8072 24.6934 15.0573 24.9435C15.3073 25.1935 15.6465 25.334 16.0001 25.334ZM22.6667 25.334C22.9305 25.334 23.1882 25.2558 23.4075 25.1093C23.6268 24.9628 23.7977 24.7545 23.8986 24.5109C23.9995 24.2673 24.0259 23.9992 23.9745 23.7405C23.923 23.4819 23.796 23.2443 23.6096 23.0578C23.4231 22.8714 23.1855 22.7444 22.9269 22.6929C22.6682 22.6415 22.4001 22.6679 22.1565 22.7688C21.9129 22.8697 21.7046 23.0406 21.5581 23.2599C21.4116 23.4792 21.3334 23.7369 21.3334 24.0006C21.3334 24.3543 21.4739 24.6934 21.7239 24.9435C21.974 25.1935 22.3131 25.334 22.6667 25.334ZM22.6667 20.0006C22.9305 20.0006 23.1882 19.9225 23.4075 19.7759C23.6268 19.6294 23.7977 19.4212 23.8986 19.1776C23.9995 18.9339 24.0259 18.6658 23.9745 18.4072C23.923 18.1486 23.796 17.911 23.6096 17.7245C23.4231 17.538 23.1855 17.411 22.9269 17.3596C22.6682 17.3082 22.4001 17.3346 22.1565 17.4355C21.9129 17.5364 21.7046 17.7073 21.5581 17.9266C21.4116 18.1458 21.3334 18.4036 21.3334 18.6673C21.3334 19.0209 21.4739 19.3601 21.7239 19.6101C21.974 19.8602 22.3131 20.0006 22.6667 20.0006ZM16.0001 20.0006C16.2638 20.0006 16.5216 19.9225 16.7408 19.7759C16.9601 19.6294 17.131 19.4212 17.2319 19.1776C17.3328 18.9339 17.3592 18.6658 17.3078 18.4072C17.2563 18.1486 17.1294 17.911 16.9429 17.7245C16.7564 17.538 16.5188 17.411 16.2602 17.3596C16.0016 17.3082 15.7335 17.3346 15.4898 17.4355C15.2462 17.5364 15.038 17.7073 14.8915 17.9266C14.7449 18.1458 14.6667 18.4036 14.6667 18.6673C14.6667 19.0209 14.8072 19.3601 15.0573 19.6101C15.3073 19.8602 15.6465 20.0006 16.0001 20.0006ZM25.3334 4.00065H24.0001V2.66732C24.0001 2.3137 23.8596 1.97456 23.6096 1.72451C23.3595 1.47446 23.0204 1.33398 22.6667 1.33398C22.3131 1.33398 21.974 1.47446 21.7239 1.72451C21.4739 1.97456 21.3334 2.3137 21.3334 2.66732V4.00065H10.6667V2.66732C10.6667 2.3137 10.5263 1.97456 10.2762 1.72451C10.0262 1.47446 9.68704 1.33398 9.33341 1.33398C8.97979 1.33398 8.64065 1.47446 8.39061 1.72451C8.14056 1.97456 8.00008 2.3137 8.00008 2.66732V4.00065H6.66675C5.60588 4.00065 4.58847 4.42208 3.83832 5.17222C3.08818 5.92237 2.66675 6.93978 2.66675 8.00065V26.6673C2.66675 27.7282 3.08818 28.7456 3.83832 29.4957C4.58847 30.2459 5.60588 30.6673 6.66675 30.6673H25.3334C26.3943 30.6673 27.4117 30.2459 28.1618 29.4957C28.912 28.7456 29.3334 27.7282 29.3334 26.6673V8.00065C29.3334 6.93978 28.912 5.92237 28.1618 5.17222C27.4117 4.42208 26.3943 4.00065 25.3334 4.00065ZM26.6667 26.6673C26.6667 27.0209 26.5263 27.3601 26.2762 27.6101C26.0262 27.8602 25.687 28.0006 25.3334 28.0006H6.66675C6.31313 28.0006 5.97399 27.8602 5.72394 27.6101C5.47389 27.3601 5.33341 27.0209 5.33341 26.6673V14.6673H26.6667V26.6673ZM26.6667 12.0007H5.33341V8.00065C5.33341 7.64703 5.47389 7.30789 5.72394 7.05784C5.97399 6.80779 6.31313 6.66732 6.66675 6.66732H8.00008V8.00065C8.00008 8.35427 8.14056 8.69341 8.39061 8.94346C8.64065 9.19351 8.97979 9.33398 9.33341 9.33398C9.68704 9.33398 10.0262 9.19351 10.2762 8.94346C10.5263 8.69341 10.6667 8.35427 10.6667 8.00065V6.66732H21.3334V8.00065C21.3334 8.35427 21.4739 8.69341 21.7239 8.94346C21.974 9.19351 22.3131 9.33398 22.6667 9.33398C23.0204 9.33398 23.3595 9.19351 23.6096 8.94346C23.8596 8.69341 24.0001 8.35427 24.0001 8.00065V6.66732H25.3334C25.687 6.66732 26.0262 6.80779 26.2762 7.05784C26.5263 7.30789 26.6667 7.64703 26.6667 8.00065V12.0007ZM9.33341 20.0006C9.59712 20.0006 9.85491 19.9225 10.0742 19.7759C10.2934 19.6294 10.4643 19.4212 10.5653 19.1776C10.6662 18.9339 10.6926 18.6658 10.6411 18.4072C10.5897 18.1486 10.4627 17.911 10.2762 17.7245C10.0898 17.538 9.85218 17.411 9.59354 17.3596C9.33489 17.3082 9.06681 17.3346 8.82317 17.4355C8.57954 17.5364 8.3713 17.7073 8.22479 17.9266C8.07828 18.1458 8.00008 18.4036 8.00008 18.6673C8.00008 19.0209 8.14056 19.3601 8.39061 19.6101C8.64065 19.8602 8.97979 20.0006 9.33341 20.0006ZM9.33341 25.334C9.59712 25.334 9.85491 25.2558 10.0742 25.1093C10.2934 24.9628 10.4643 24.7545 10.5653 24.5109C10.6662 24.2673 10.6926 23.9992 10.6411 23.7405C10.5897 23.4819 10.4627 23.2443 10.2762 23.0578C10.0898 22.8714 9.85218 22.7444 9.59354 22.6929C9.33489 22.6415 9.06681 22.6679 8.82317 22.7688C8.57954 22.8697 8.3713 23.0406 8.22479 23.2599C8.07828 23.4792 8.00008 23.7369 8.00008 24.0006C8.00008 24.3543 8.14056 24.6934 8.39061 24.9435C8.64065 25.1935 8.97979 25.334 9.33341 25.334Z" stroke="#FF7506" stroke-width="4.125" mask="url(#path-1-inside-1_632_4011)"/>
</g>
</g>
</svg>
