<svg version="1.1" id="Layer_1" xmlns="http://www.w3.org/2000/svg" xmlns:xlink="http://www.w3.org/1999/xlink" x="0px" y="0px"
	 width="100%" viewBox="0 0 225 225" enable-background="new 0 0 225 225" xml:space="preserve">
<path fill="#0178D6" opacity="1.000000" stroke="none" 
	d="
M221.000000,1.000000 
	C222.066788,1.000000 223.133575,1.000000 224.570358,1.467898 
	C224.955399,37.289742 224.970428,72.643684 224.523499,108.076477 
	C184.157669,108.155327 144.253815,108.155327 104.328156,108.155327 
	C104.328156,77.982262 104.328156,48.548077 104.328156,19.107805 
	C105.497047,18.773657 106.438728,18.384813 107.416313,18.242365 
	C137.862320,13.805962 168.318756,9.440612 198.755814,4.943939 
	C206.202240,3.843829 213.586929,2.325856 221.000000,1.000000 
z"/>
<path fill="#FCFDFE" opacity="1.000000" stroke="none" 
	d="
M220.531342,1.000000 
	C213.586929,2.325856 206.202240,3.843829 198.755814,4.943939 
	C168.318756,9.440612 137.862320,13.805962 107.416313,18.242365 
	C106.438728,18.384813 105.497047,18.773657 104.328156,19.107805 
	C104.328156,48.548077 104.328156,77.982262 104.328156,108.155327 
	C144.253815,108.155327 184.157669,108.155327 224.777069,108.118614 
	C225.661758,108.054596 225.830887,108.027298 226.000000,108.000000 
	C226.000000,111.692909 226.000000,115.385818 225.737488,119.509888 
	C225.301605,119.971901 225.128235,120.002754 224.493042,119.968079 
	C184.135269,119.902542 144.239273,119.902542 104.343513,119.902542 
	C104.343513,149.892975 104.343513,179.155594 104.343513,208.716171 
	C135.784790,213.175583 167.035095,217.554001 198.264404,222.077377 
	C205.546219,223.132111 212.756699,224.679352 220.000000,226.000000 
	C146.999985,226.000000 73.999962,226.000000 1.000000,226.000000 
	C1.000000,215.567886 1.000000,205.252609 1.212115,194.578827 
	C1.424230,194.220352 1.888346,194.105789 2.226478,194.334381 
	C32.582336,198.786301 62.600067,203.009613 92.674164,207.240875 
	C92.674164,177.324081 92.674164,148.102600 92.674164,118.663475 
	C76.183098,118.663475 60.035095,118.627586 43.887329,118.674362 
	C29.908213,118.714859 15.929367,118.849159 1.708699,118.889282 
	C1.466996,118.836555 1.000000,119.000000 1.000000,119.000000 
	C1.000000,115.969406 1.000000,112.938812 1.272388,109.454727 
	C1.723828,108.970985 1.902881,108.940720 2.311305,108.955185 
	C2.540677,108.999924 2.989791,108.870430 3.363315,108.946793 
	C4.493938,108.971741 5.251038,108.920326 6.471364,108.943054 
	C34.119213,109.025848 61.303864,109.050659 88.488373,108.998459 
	C89.942581,108.995667 91.395554,108.344536 92.921974,107.531876 
	C92.946457,78.710236 92.898064,50.351940 92.877441,21.705872 
	C92.599991,21.289610 92.294769,21.161125 91.655243,20.977915 
	C90.878166,20.997795 90.435379,21.072401 89.747421,21.100368 
	C89.502251,21.053730 89.029388,21.213505 88.624527,21.186783 
	C59.516079,25.148096 30.812500,29.136133 1.833229,33.079388 
	C1.371691,33.023071 1.185846,33.011536 1.000000,33.000000 
	C1.000000,22.351881 1.000000,11.703762 1.000000,1.000000 
	C74.020882,1.000000 147.041779,1.000000 220.531342,1.000000 
z"/>
<path fill="#0178D6" opacity="1.000000" stroke="none" 
	d="
M220.416656,226.000000 
	C212.756699,224.679352 205.546219,223.132111 198.264404,222.077377 
	C167.035095,217.554001 135.784790,213.175583 104.343513,208.716171 
	C104.343513,179.155594 104.343513,149.892975 104.343513,119.902542 
	C144.239273,119.902542 184.135269,119.902542 224.514587,120.434357 
	C224.998596,155.977448 224.999298,190.988724 225.000000,226.000000 
	C223.611115,226.000000 222.222214,226.000000 220.416656,226.000000 
z"/>
<path fill="#87B5E7" opacity="1.000000" stroke="none" 
	d="
M226.000000,107.531342 
	C225.830887,108.027298 225.661758,108.054596 225.239044,108.039764 
	C224.970428,72.643684 224.955399,37.289742 224.970184,1.467897 
	C225.333344,2.326551 225.955673,3.652650 225.957764,4.979724 
	C226.011261,39.007317 226.000000,73.035011 226.000000,107.531342 
z"/>
<path fill="#87B5E7" opacity="1.000000" stroke="none" 
	d="
M225.500000,226.000000 
	C224.999298,190.988724 224.998596,155.977448 224.976379,120.499893 
	C225.128235,120.002754 225.301605,119.971901 225.737488,119.970520 
	C226.000000,155.333328 226.000000,190.666672 225.500000,226.000000 
z"/>
<path fill="#87B5E7" opacity="1.000000" stroke="none" 
	d="
M1.000000,33.468658 
	C1.185846,33.011536 1.371691,33.023071 1.795443,33.538780 
	C2.071852,58.704296 2.110355,83.365646 2.101847,108.245560 
	C2.054836,108.464134 2.081933,108.910446 2.081933,108.910446 
	C1.902881,108.940720 1.723828,108.970985 1.272388,109.000626 
	C1.000000,83.979103 1.000000,58.958210 1.000000,33.468658 
z"/>
<path fill="#87B5E7" opacity="1.000000" stroke="none" 
	d="
M1.000000,119.468658 
	C1.000000,119.000000 1.466996,118.836555 1.719730,119.361954 
	C1.944425,144.626831 1.916386,169.366318 1.888346,194.105789 
	C1.888346,194.105789 1.424230,194.220352 1.212115,194.110168 
	C1.000000,169.312439 1.000000,144.624878 1.000000,119.468658 
z"/>
<path fill="#0078D6" opacity="1.000000" stroke="none" 
	d="
M2.226478,194.334381 
	C1.916386,169.366318 1.944425,144.626831 1.961433,119.414680 
	C15.929367,118.849159 29.908213,118.714859 43.887329,118.674362 
	C60.035095,118.627586 76.183098,118.663475 92.674164,118.663475 
	C92.674164,148.102600 92.674164,177.324081 92.674164,207.240875 
	C62.600067,203.009613 32.582336,198.786301 2.226478,194.334381 
z"/>
<path fill="#0078D6" opacity="1.000000" stroke="none" 
	d="
M2.148858,108.026993 
	C2.110355,83.365646 2.071852,58.704296 2.071135,33.583557 
	C30.812500,29.136133 59.516079,25.148096 88.742516,21.245987 
	C89.265373,21.331915 89.649651,21.335428 89.649651,21.335428 
	C89.649651,21.335428 89.992592,21.147007 89.992592,21.147007 
	C90.435379,21.072401 90.878166,20.997795 91.784576,21.150433 
	C92.429008,21.602221 92.629494,21.807543 92.849670,21.993649 
	C92.898064,50.351940 92.946457,78.710236 92.462906,107.532654 
	C65.561752,107.997444 39.192490,107.976830 12.823408,108.036552 
	C10.551035,108.041695 8.279866,108.578873 6.008139,108.868912 
	C5.251038,108.920326 4.493938,108.971741 3.236270,108.793411 
	C2.557274,108.365990 2.361659,108.187096 2.148858,108.026993 
z"/>
<path fill="#0070D4" opacity="1.000000" stroke="none" 
	d="
M6.471364,108.943054 
	C8.279866,108.578873 10.551035,108.041695 12.823408,108.036552 
	C39.192490,107.976830 65.561752,107.997444 92.390030,107.996002 
	C91.395554,108.344536 89.942581,108.995667 88.488373,108.998459 
	C61.303864,109.050659 34.119213,109.025848 6.471364,108.943054 
z"/>
<path fill="#0070D4" opacity="1.000000" stroke="none" 
	d="
M89.747421,21.100368 
	C89.992592,21.147007 89.649651,21.335428 89.649651,21.335428 
	C89.649651,21.335428 89.265373,21.331915 89.147385,21.272709 
	C89.029388,21.213505 89.502251,21.053730 89.747421,21.100368 
z"/>
<path fill="#0070D4" opacity="1.000000" stroke="none" 
	d="
M92.877441,21.705872 
	C92.629494,21.807543 92.429008,21.602221 92.118866,21.205158 
	C92.294769,21.161125 92.599991,21.289610 92.877441,21.705872 
z"/>
<path fill="#0070D4" opacity="1.000000" stroke="none" 
	d="
M2.101847,108.245560 
	C2.361659,108.187096 2.557274,108.365990 2.862747,108.717056 
	C2.989791,108.870430 2.540677,108.999924 2.311305,108.955185 
	C2.081933,108.910446 2.054836,108.464134 2.101847,108.245560 
z"/>
</svg>